<?xml version="1.0" standalone="no"?>
<!DOCTYPE svg PUBLIC "-//W3C//DTD SVG 20010904//EN"
 "http://www.w3.org/TR/2001/REC-SVG-20010904/DTD/svg10.dtd">
<svg version="1.0" xmlns="http://www.w3.org/2000/svg"
 width="512.000000pt" height="512.000000pt" viewBox="0 0 512.000000 512.000000"
 preserveAspectRatio="xMidYMid meet">
<metadata>
Created by potrace 1.14, written by Peter Selinger 2001-2017
</metadata>
<g transform="translate(0.000000,512.000000) scale(0.100000,-0.100000)"
fill="#000000" stroke="none">
<path d="M0 2560 l0 -2560 2560 0 2560 0 0 2560 0 2560 -2560 0 -2560 0 0
-2560z m1140 1293 c0 -27 -4 -53 -8 -60 -4 -7 -41 -19 -82 -28 -41 -9 -93 -27
-116 -40 -80 -47 -74 45 -74 -1224 l0 -1131 448 0 c368 0 458 3 506 15 57 15
107 43 134 75 36 42 73 143 90 243 l17 107 45 0 c25 0 50 -4 57 -8 17 -10 35
-274 31 -447 l-3 -140 -967 -3 -968 -2 0 34 c0 86 5 91 88 110 92 20 149 50
179 95 l23 34 0 1113 0 1112 -42 16 c-65 23 -108 34 -158 41 -101 14 -100 13
-100 53 0 20 3 47 6 60 l6 22 444 0 444 0 0 -47z m2600 36 c249 -30 439 -96
614 -213 276 -183 449 -458 512 -811 25 -140 25 -469 0 -610 -50 -282 -160
-501 -341 -681 -165 -164 -373 -273 -622 -325 -152 -32 -303 -39 -840 -39
l-513 0 0 43 c0 80 4 84 90 103 89 19 144 46 174 87 21 28 21 29 24 1151 l2
1123 -72 21 c-58 17 -192 42 -222 42 -8 0 -7 105 1 113 11 12 1101 8 1193 -4z"/>
<path d="M3157 3753 c-4 -3 -7 -541 -7 -1196 l0 -1189 283 4 c263 4 288 6 377
30 178 48 300 118 416 240 206 214 304 511 304 918 0 403 -97 699 -299 913
-157 166 -339 250 -600 276 -114 12 -464 15 -474 4z"/>
</g>
</svg>
